<?xml version="1.0" encoding="utf-8"?>
<!-- Generator: Adobe Illustrator 28.1.0, SVG Export Plug-In . SVG Version: 6.00 Build 0)  -->
<svg version="1.1" id="Capa_1" xmlns="http://www.w3.org/2000/svg" xmlns:xlink="http://www.w3.org/1999/xlink" x="0px" y="0px"
	 viewBox="0 0 100 100" style="enable-background:new 0 0 100 100;" xml:space="preserve" stroke="white"  fill="white">
<g>
	<!--for change in:
		trazo of lines with stroke,
		background with fill
	-->
	<g>
		<path d="M66.5,42.6c0-1.6,0-2.9,0-4.3c0-0.3,0.4-0.7,0.8-0.9c3.2-1.6,6.4-3.2,9.7-4.7c0.4-0.2,0.8-0.4,1.2-0.6
			c-3.7-1.7-7.2-3.5-10.8-5.1c-0.7-0.3-1-0.7-1-1.5c0.1-1.2,0-2.4,0-3.8c1.6,0.8,3.1,1.6,4.6,2.4c3.5,1.8,6.9,3.6,10.4,5.4
			c0.7,0.3,0.9,0.7,0.9,1.5c0.2,3.2,0.2,3.2-2.6,4.7c-4.1,2.2-8.1,4.3-12.2,6.5C67.4,42.2,67,42.4,66.5,42.6z"/>
		<path d="M52.4,21.7c0,1.6,0.1,3,0,4.4c0,0.3-0.5,0.8-0.9,0.9c-3.1,1.6-6.2,3.1-9.3,4.7c-0.4,0.2-0.7,0.4-1.2,0.6
			c3,1.4,5.8,3,8.7,4.2c2.3,0.9,3.2,2.1,2.8,4.5c-0.1,0.5,0,1,0,1.7c-0.4-0.2-0.8-0.3-1.2-0.5c-4.6-2.4-9.2-4.9-13.9-7.3
			c-0.8-0.4-0.9-0.9-1-1.7c-0.3-2.2,0.5-3.3,2.5-4.3c4.1-2,8.1-4.3,12.1-6.5C51.4,22.2,51.8,22,52.4,21.7z"/>
		<path d="M60.8,15.7c1.3,0,2.5,0,3.8,0c-2,9.5-3.9,19-5.9,28.5c-1.3,0-2.5,0-3.8,0C56.9,34.7,58.9,25.2,60.8,15.7z"/>
	</g>
	<path d="M45.1,63.2c1,1,1.6,2.2,1.7,3.6c0.1,2.7,0.1,5.3,0.1,8c0,2.2,0.9,4,2.7,5.3c0.5,0.3,0.6,0.7,0.6,1.2c0,2.8,0,5.6,0,8.4
		c0,3.2,2.5,6,5.7,6.2c2.3,0.2,4.6,0.1,6.9,0.1c4,0,6.8-2.8,6.8-6.8c0-2.7,0-5.3,0-8c0-0.5,0.1-0.8,0.5-1.1c1.5-1.1,2.5-2.6,2.6-4.5
		c0.1-2.2,0.1-4.4,0.1-6.6c0-1.8,6.3-10.6,11.3-20.3c3.6-7,5.9-13.6,5.8-19.1c-0.1-5.5-2.1-8.5-3.6-11C81.2,9.8,71.2,6.4,60.3,6.4
		c-2.4,0-7.9,0.3-13.5,2.4c-4.5,1.7-8.9,4.8-12,8.2c-3,3.3-5.6,10.6-5,17.6c0.5,6,3.9,11.9,5,14C39.2,56.3,44.7,62.8,45.1,63.2z
		 M64.1,92.5c-2.8,0.3-5.6,0.2-8.3,0c-1.4-0.1-2.3-1.6-2.4-3.1c0-0.5,0-1.1,0-1.6h12.9C66.9,90.1,66,92.3,64.1,92.5z M53.4,84.6
		v-3.2h12.9v3.2H53.4z M74.8,58.9c-1.6,3.3-5.1,6-5.1,9.6c0,2.1,0,4.2,0,6.3c0,2-1.4,3.3-3.4,3.3c-4.2,0-8.5,0-12.7,0
		c-2.1,0-3.4-1.3-3.5-3.5c0-1.9,0-3.9,0-5.8c0-2.1-5-8.6-9.7-16.3c-4.6-7.5-9-16.3-8-21.7c2.4-12.9,11.5-21.9,30.7-21
		c8.9,0.4,22.9,8.1,23.6,19.4C87.6,42.3,76.7,54.9,74.8,58.9z"/>
	<path d="M31,33.1c-0.1-0.1-0.2-0.2-0.2-0.2c0-0.9-0.6-1.1-1.3-1.2c-3-0.3-5.9,1.5-6.9,4.3c-1,2.8,0.2,6,2.8,7.6
		c2.6,1.6,5.8,1.2,8-1l2.3,2.3c-3.2,3.2-7.9,3.9-11.8,1.7c-3.9-2.1-5.7-6.5-4.6-11.1c0.6-2.4,2.1-4.3,4.2-5.6
		c2.1-1.3,4.4-1.7,6.8-1.4c0.1-1.8,0.2-3.5,0.3-5.4c-0.2,0.3-0.3,0.5-0.4,0.7c-1.4,2.4-4,2.6-5.7,0.5c-0.8-1-1.6-1.9-2.3-2.9
		c-1.3,0.7-2.5,1.3-3.7,2c0.4,1.1,0.7,2.3,1.1,3.5c0.8,2.7-0.8,4.7-3.6,4.5c-1.1-0.1-2.2-0.2-3.3-0.3c-0.4,0-0.6,0.1-0.7,0.5
		c-0.2,0.9-0.5,1.8-0.8,2.6c-0.2,0.5,0,0.7,0.4,0.9c1.1,0.6,2.1,1.1,3.1,1.7c2,1.2,2.2,3.8,0.4,5.3c-1,0.9-2.1,1.7-3.1,2.5
		c0.7,1.3,1.3,2.5,2,3.7c1.1-0.3,2.3-0.7,3.4-1.1c2.7-0.9,4.8,0.8,4.5,3.7c-0.1,1-0.2,2.1-0.3,3.1c0,0.4,0,0.7,0.5,0.8
		c0.9,0.2,1.8,0.5,2.6,0.8c0.4,0.1,0.6,0,0.8-0.3c0.6-1.1,1.2-2.1,1.8-3.2c1.1-2,3.8-2.3,5.3-0.5c0.9,1,1.7,2.1,2.7,3.3
		c1.4-0.8,2.8-1.6,4.2-2.5c0.1,0.1,0.1,0.1,0.2,0.2c-0.2,0.9-0.5,1.8-0.6,2.7c-0.1,1-0.6,1.6-1.5,2c-0.6,0.2-1.1,0.6-1.7,0.9
		c-1.1,0.6-1.8,0.4-2.5-0.5c-1-1.3-2.1-2.6-3.1-3.9c-0.1,0.2-0.3,0.3-0.4,0.4c-0.7,1.3-1.5,2.7-2.2,4c-0.6,1-1.2,1.3-2.3,1
		c-1.9-0.6-3.8-1.1-5.7-1.7c-1.1-0.3-1.4-0.9-1.3-2c0.1-1.7,0.3-3.4,0.4-5.2c-0.3,0.1-0.5,0.1-0.8,0.2c-1.4,0.4-2.8,0.9-4.2,1.3
		c-1.1,0.3-1.7,0.1-2.2-0.9c-1-1.9-2-3.8-3.1-5.7c-0.5-0.9-0.3-1.7,0.5-2.3c1.1-0.9,2.3-1.8,3.4-2.7c0.2-0.2,0.4-0.3,0.6-0.6
		c-1.5-0.8-2.8-1.6-4.2-2.3c-1.4-0.8-1.6-1.2-1.1-2.8c0.5-1.7,1.1-3.5,1.6-5.2c0.4-1.4,0.9-1.7,2.4-1.5c1.6,0.1,3.2,0.3,4.9,0.4
		c-0.2-0.7-0.3-1.2-0.5-1.7c-0.4-1.1-0.7-2.2-1.1-3.3c-0.3-0.9,0-1.6,0.8-2.1c2-1.1,3.9-2.1,5.9-3.2c0.8-0.4,1.6-0.3,2.2,0.5
		c0.9,1.2,1.9,2.3,2.8,3.5c0.2,0.2,0.3,0.4,0.5,0.6c0.8-1.4,1.5-2.7,2.2-4.1c0.8-1.5,2.3,0.1,4.1,0.4L31,33.1z"/>
</g>
</svg>
